<svg width="2043" height="1276" viewBox="0 0 2043 1276" fill="none" xmlns="http://www.w3.org/2000/svg">
<path d="M2.01879 1255.76C7.58003 1270.98 24.4232 1278.8 39.6391 1273.24C54.8551 1267.68 62.6817 1250.84 57.1205 1235.62C51.5592 1220.41 34.716 1212.58 19.5001 1218.14C4.28421 1223.7 -3.54245 1240.55 2.01879 1255.76ZM2037.7 10.9961C2040.74 10.8833 2043.11 8.33106 2043 5.29559C2042.88 2.26013 2040.33 -0.109125 2037.3 0.00372515L2037.7 10.9961ZM532.57 928.193L527.686 930.724L532.57 928.193ZM1521 494.001L1516.29 496.842L1521 494.001ZM39.9183 1252.26C42.9428 1252.54 45.6226 1250.32 45.9037 1247.29C46.1849 1244.27 43.9609 1241.59 40.9364 1241.31L39.9183 1252.26ZM63.4951 1243.17C60.4655 1242.94 57.8305 1245.22 57.6095 1248.25C57.3886 1251.28 59.6653 1253.92 62.6949 1254.14L63.4951 1243.17ZM85.2957 1255.6C88.3284 1255.77 90.9261 1253.45 91.0979 1250.42C91.2696 1247.38 88.9504 1244.79 85.9177 1244.61L85.2957 1255.6ZM108.497 1245.72C105.462 1245.59 102.9 1247.95 102.775 1250.99C102.65 1254.02 105.009 1256.58 108.044 1256.71L108.497 1245.72ZM130.762 1257.47C133.798 1257.55 136.323 1255.15 136.402 1252.12C136.481 1249.08 134.083 1246.55 131.046 1246.47L130.762 1257.47ZM153.574 1246.88C150.537 1246.85 148.049 1249.29 148.018 1252.33C147.986 1255.36 150.423 1257.85 153.46 1257.88L153.574 1246.88ZM176.171 1257.94C179.209 1257.92 181.657 1255.44 181.639 1252.4C181.622 1249.37 179.145 1246.92 176.108 1246.94L176.171 1257.94ZM198.657 1246.62C195.62 1246.69 193.214 1249.2 193.284 1252.24C193.353 1255.28 195.871 1257.68 198.907 1257.61L198.657 1246.62ZM221.662 1256.89C224.697 1256.77 227.056 1254.21 226.932 1251.17C226.808 1248.14 224.247 1245.78 221.212 1245.9L221.662 1256.89ZM243.747 1244.76C240.715 1244.95 238.406 1247.55 238.588 1250.58C238.771 1253.62 241.378 1255.93 244.41 1255.74L243.747 1244.76ZM267.051 1254.14C270.078 1253.9 272.333 1251.24 272.087 1248.21C271.84 1245.19 269.186 1242.93 266.158 1243.18L267.051 1254.14ZM288.553 1241.1C285.532 1241.42 283.339 1244.12 283.655 1247.14C283.97 1250.16 286.676 1252.36 289.697 1252.04L288.553 1241.1ZM312.318 1249.39C315.33 1249 317.454 1246.24 317.062 1243.23C316.67 1240.21 313.91 1238.09 310.898 1238.48L312.318 1249.39ZM333.135 1235.28C330.135 1235.75 328.09 1238.57 328.567 1241.57C329.043 1244.57 331.862 1246.62 334.862 1246.14L333.135 1235.28ZM357.301 1242.22C360.284 1241.64 362.239 1238.76 361.668 1235.78C361.097 1232.8 358.215 1230.84 355.232 1231.41L357.301 1242.22ZM377.205 1226.8C374.244 1227.48 372.394 1230.43 373.072 1233.39C373.75 1236.35 376.7 1238.2 379.661 1237.52L377.205 1226.8ZM401.845 1231.97C404.776 1231.17 406.503 1228.15 405.703 1225.22C404.904 1222.29 401.88 1220.56 398.949 1221.36L401.845 1231.97ZM420.369 1214.97C417.48 1215.91 415.9 1219.02 416.839 1221.9C417.777 1224.79 420.88 1226.37 423.769 1225.43L420.369 1214.97ZM445.335 1217.77C448.167 1216.67 449.571 1213.48 448.472 1210.65C447.372 1207.82 444.186 1206.42 441.354 1207.52L445.335 1217.77ZM461.769 1198.82C459.017 1200.11 457.827 1203.38 459.112 1206.13C460.397 1208.89 463.67 1210.07 466.423 1208.79L461.769 1198.82ZM486.959 1198.21C489.599 1196.71 490.522 1193.35 489.021 1190.71C487.52 1188.07 484.162 1187.15 481.521 1188.65L486.959 1198.21ZM500.202 1176.84C497.719 1178.59 497.124 1182.02 498.874 1184.5C500.623 1186.98 504.055 1187.58 506.538 1185.83L500.202 1176.84ZM524.756 1171.39C527.019 1169.36 527.212 1165.88 525.186 1163.62C523.16 1161.36 519.683 1161.17 517.419 1163.19L524.756 1171.39ZM532.672 1147.58C530.708 1149.9 530.994 1153.37 533.311 1155.33C535.628 1157.29 539.099 1157.01 541.063 1154.69L532.672 1147.58ZM554.791 1135.72C556.37 1133.12 555.548 1129.74 552.953 1128.16C550.359 1126.58 546.975 1127.4 545.395 1130L554.791 1135.72ZM555.073 1110.66C553.946 1113.48 555.318 1116.68 558.139 1117.8C560.96 1118.93 564.16 1117.56 565.287 1114.74L555.073 1110.66ZM572.151 1092.34C572.802 1089.37 570.924 1086.44 567.957 1085.79C564.99 1085.14 562.057 1087.02 561.407 1089.98L572.151 1092.34ZM564.413 1068.51C564.215 1071.54 566.511 1074.16 569.542 1074.35C572.573 1074.55 575.191 1072.26 575.39 1069.23L564.413 1068.51ZM575.357 1045.96C575.16 1042.93 572.543 1040.63 569.512 1040.83C566.481 1041.02 564.183 1043.64 564.38 1046.67L575.357 1045.96ZM561.697 1024.71C562.225 1027.71 565.078 1029.7 568.07 1029.17C571.061 1028.65 573.058 1025.79 572.529 1022.8L561.697 1024.71ZM567.452 1000.25C566.656 997.316 563.634 995.585 560.702 996.381C557.771 997.178 556.04 1000.2 556.837 1003.13L567.452 1000.25ZM550.295 982.23C551.305 985.094 554.447 986.597 557.311 985.587C560.176 984.577 561.679 981.435 560.669 978.571L550.295 982.23ZM552.251 956.963C551.062 954.168 547.833 952.865 545.037 954.054C542.242 955.242 540.939 958.472 542.128 961.267L552.251 956.963ZM532.927 941.138C534.259 943.868 537.552 945.001 540.282 943.669C543.012 942.337 544.145 939.044 542.813 936.314L532.927 941.138ZM532.317 915.162C531.05 912.401 527.785 911.19 525.024 912.458C522.264 913.725 521.053 916.99 522.32 919.75L532.317 915.162ZM514.061 898.912C515.012 901.797 518.122 903.365 521.007 902.414C523.891 901.463 525.459 898.353 524.508 895.468L514.061 898.912ZM519.332 874.468C518.865 871.467 516.052 869.413 513.051 869.881C510.05 870.349 507.996 873.161 508.464 876.162L519.332 874.468ZM507.355 853.076C507.144 856.106 509.429 858.734 512.459 858.946C515.489 859.157 518.117 856.872 518.328 853.842L507.355 853.076ZM522.537 833.947C523.592 831.099 522.139 827.934 519.29 826.879C516.442 825.824 513.277 827.277 512.222 830.126L522.537 833.947ZM523.695 809.328C521.862 811.749 522.338 815.199 524.76 817.033C527.182 818.866 530.631 818.39 532.465 815.968L523.695 809.328ZM547.034 801.009C549.382 799.082 549.723 795.617 547.796 793.269C545.869 790.921 542.403 790.579 540.055 792.506L547.034 801.009ZM558.895 779.627C556.261 781.14 555.353 784.502 556.866 787.136C558.38 789.769 561.742 790.678 564.375 789.164L558.895 779.627ZM583.654 779.631C586.447 778.437 587.744 775.205 586.55 772.412C585.356 769.619 582.124 768.322 579.331 769.516L583.654 779.631ZM601.004 761.392C598.118 762.342 596.549 765.45 597.498 768.336C598.447 771.221 601.556 772.791 604.441 771.842L601.004 761.392ZM624.97 765.811C627.908 765.04 629.665 762.034 628.894 759.095C628.124 756.157 625.117 754.4 622.179 755.171L624.97 765.811ZM644.285 749.968C641.313 750.594 639.412 753.512 640.039 756.484C640.665 759.456 643.583 761.358 646.555 760.731L644.285 749.968ZM668.024 756.638C671.017 756.123 673.027 753.279 672.512 750.286C671.997 747.292 669.153 745.283 666.16 745.797L668.024 756.638ZM688.403 742.334C685.395 742.757 683.299 745.538 683.722 748.546C684.145 751.554 686.927 753.65 689.935 753.227L688.403 742.334ZM711.731 750.444C714.748 750.096 716.912 747.367 716.563 744.35C716.214 741.332 713.486 739.168 710.468 739.517L711.731 750.444ZM732.851 737.173C729.827 737.459 727.608 740.142 727.894 743.166C728.18 746.19 730.863 748.41 733.887 748.124L732.851 737.173ZM755.752 746.248C758.781 746.013 761.046 743.368 760.811 740.339C760.576 737.311 757.931 735.046 754.902 735.281L755.752 746.248ZM777.445 733.704C774.413 733.894 772.11 736.506 772.3 739.538C772.491 742.57 775.103 744.873 778.135 744.682L777.445 733.704ZM799.979 743.444C803.013 743.29 805.347 740.706 805.193 737.672C805.039 734.638 802.455 732.304 799.421 732.458L799.979 743.444ZM821.864 731.437C818.828 731.56 816.468 734.12 816.591 737.155C816.713 740.19 819.273 742.551 822.308 742.428L821.864 731.437ZM844.354 741.633C847.39 741.536 849.772 738.997 849.675 735.96C849.579 732.924 847.039 730.542 844.003 730.639L844.354 741.633ZM866.256 730.012C863.22 730.086 860.819 732.609 860.894 735.646C860.969 738.682 863.491 741.083 866.528 741.008L866.256 730.012ZM888.815 740.527C891.852 740.47 894.268 737.962 894.211 734.925C894.155 731.888 891.647 729.472 888.61 729.529L888.815 740.527ZM910.744 729.171C907.707 729.213 905.279 731.709 905.321 734.747C905.363 737.784 907.859 740.212 910.896 740.17L910.744 729.171ZM933.194 739.906C936.232 739.876 938.67 737.389 938.639 734.351C938.609 731.314 936.122 728.876 933.085 728.907L933.194 739.906ZM955.276 728.719C952.238 728.74 949.794 731.22 949.815 734.258C949.837 737.295 952.316 739.74 955.354 739.718L955.276 728.719ZM977.554 739.585C980.591 739.569 983.041 737.094 983.026 734.057C983.01 731.019 980.535 728.57 977.498 728.585L977.554 739.585ZM999.777 728.486C996.739 728.498 994.286 730.97 994.298 734.008C994.31 737.045 996.782 739.498 999.82 739.486L999.777 728.486ZM1022.01 739.405C1025.05 739.394 1027.51 736.923 1027.49 733.886C1027.48 730.848 1025.01 728.394 1021.98 728.405L1022.01 739.405ZM1044.19 728.323C1041.15 728.335 1038.7 730.807 1038.71 733.845C1038.72 736.882 1041.2 739.335 1044.23 739.323L1044.19 728.323ZM1066.49 739.221C1069.53 739.205 1071.98 736.729 1071.96 733.692C1071.94 730.654 1069.47 728.205 1066.43 728.221L1066.49 739.221ZM1088.65 728.082C1085.61 728.104 1083.16 730.585 1083.19 733.622C1083.21 736.66 1085.69 739.104 1088.73 739.082L1088.65 728.082ZM1110.88 738.887C1113.92 738.856 1116.36 736.368 1116.33 733.331C1116.3 730.293 1113.81 727.856 1110.77 727.888L1110.88 738.887ZM1133.08 727.616C1130.05 727.659 1127.62 730.156 1127.66 733.194C1127.71 736.231 1130.2 738.658 1133.24 738.615L1133.08 727.616ZM1155.44 738.248C1158.47 738.191 1160.89 735.682 1160.83 732.645C1160.77 729.608 1158.26 727.193 1155.23 727.25L1155.44 738.248ZM1177.42 726.765C1174.38 726.841 1171.98 729.364 1172.06 732.4C1172.13 735.437 1174.66 737.838 1177.69 737.762L1177.42 726.765ZM1200.02 737.13C1203.05 737.033 1205.43 734.494 1205.34 731.458C1205.24 728.422 1202.7 726.039 1199.66 726.136L1200.02 737.13ZM1221.61 725.348C1218.57 725.47 1216.21 728.029 1216.33 731.064C1216.45 734.099 1219.01 736.461 1222.05 736.339L1221.61 725.348ZM1244.55 735.327C1247.59 735.175 1249.92 732.593 1249.77 729.559C1249.62 726.525 1247.04 724.189 1244 724.341L1244.55 735.327ZM1266.01 723.117C1262.98 723.304 1260.67 725.913 1260.86 728.944C1261.04 731.976 1263.65 734.283 1266.68 734.097L1266.01 723.117ZM1289.01 732.578C1292.03 732.351 1294.31 729.711 1294.08 726.682C1293.85 723.653 1291.21 721.381 1288.18 721.609L1289.01 732.578ZM1310.27 719.782C1307.24 720.057 1305.01 722.732 1305.29 725.757C1305.56 728.782 1308.24 731.012 1311.26 730.737L1310.27 719.782ZM1333.35 728.53C1336.37 728.199 1338.55 725.483 1338.22 722.464C1337.89 719.444 1335.17 717.265 1332.15 717.595L1333.35 728.53ZM1354.28 714.93C1351.27 715.328 1349.15 718.092 1349.55 721.103C1349.95 724.114 1352.71 726.233 1355.72 725.835L1354.28 714.93ZM1377.58 722.665C1380.58 722.189 1382.63 719.371 1382.15 716.371C1381.68 713.371 1378.86 711.325 1375.86 711.801L1377.58 722.665ZM1397.87 707.952C1394.89 708.526 1392.93 711.409 1393.51 714.392C1394.08 717.374 1396.96 719.328 1399.95 718.754L1397.87 707.952ZM1421.63 714.161C1424.58 713.472 1426.42 710.515 1425.73 707.557C1425.04 704.598 1422.09 702.759 1419.13 703.449L1421.63 714.161ZM1440.61 697.893C1437.69 698.73 1436 701.776 1436.84 704.696C1437.68 707.616 1440.72 709.305 1443.64 708.468L1440.61 697.893ZM1465.07 701.617C1467.93 700.597 1469.42 697.451 1468.4 694.589C1467.38 691.728 1464.24 690.236 1461.37 691.256L1465.07 701.617ZM1481.41 683.204C1478.65 684.458 1477.42 687.718 1478.68 690.485C1479.93 693.251 1483.19 694.477 1485.96 693.223L1481.41 683.204ZM1506.43 682.568C1509.03 681.006 1509.88 677.628 1508.32 675.023C1506.76 672.417 1503.38 671.571 1500.77 673.133L1506.43 682.568ZM1518.11 660.939C1515.78 662.882 1515.46 666.35 1517.41 668.685C1519.35 671.019 1522.82 671.337 1525.15 669.393L1518.11 660.939ZM1541.37 652.926C1543.25 650.545 1542.85 647.086 1540.47 645.199C1538.09 643.313 1534.63 643.714 1532.75 646.094L1541.37 652.926ZM1543.54 628.301C1542.31 631.081 1543.58 634.327 1546.36 635.549C1549.14 636.772 1552.38 635.509 1553.6 632.728L1543.54 628.301ZM1560.14 610.262C1560.61 607.261 1558.56 604.448 1555.56 603.978C1552.56 603.508 1549.74 605.56 1549.27 608.561L1560.14 610.262ZM1550.13 587.908C1550.32 590.94 1552.94 593.243 1555.97 593.053C1559 592.862 1561.3 590.25 1561.11 587.219L1550.13 587.908ZM1557.59 564.131C1556.9 561.175 1553.93 559.343 1550.98 560.04C1548.02 560.736 1546.19 563.698 1546.89 566.655L1557.59 564.131ZM1540.7 546.307C1541.75 549.158 1544.91 550.62 1547.76 549.572C1550.61 548.524 1552.08 545.363 1551.03 542.512L1540.7 546.307ZM1542.25 521.719C1540.95 518.975 1537.67 517.804 1534.92 519.106C1532.18 520.407 1531.01 523.687 1532.31 526.432L1542.25 521.719ZM1522.23 507.022C1523.72 509.67 1527.07 510.609 1529.72 509.121C1532.36 507.632 1533.3 504.279 1531.82 501.631L1522.23 507.022ZM1519.8 481.148C1518.28 478.518 1514.92 477.616 1512.29 479.134C1509.66 480.653 1508.75 484.017 1510.27 486.647L1519.8 481.148ZM1499.27 466.662C1500.68 469.353 1504 470.392 1506.69 468.983C1509.38 467.574 1510.42 464.25 1509.01 461.559L1499.27 466.662ZM1499.19 441.732C1497.91 438.979 1494.64 437.788 1491.89 439.071C1489.13 440.354 1487.94 443.627 1489.22 446.38L1499.19 441.732ZM1480.09 425.383C1481.23 428.2 1484.43 429.563 1487.25 428.428C1490.07 427.292 1491.43 424.088 1490.29 421.27L1480.09 425.383ZM1482.62 400.487C1481.65 397.606 1478.54 396.053 1475.66 397.017C1472.78 397.981 1471.22 401.098 1472.19 403.979L1482.62 400.487ZM1465.69 382.187C1466.46 385.126 1469.46 386.889 1472.4 386.123C1475.34 385.358 1477.1 382.355 1476.34 379.415L1465.69 382.187ZM1471.57 357.663C1471.03 354.672 1468.18 352.678 1465.19 353.208C1462.2 353.739 1460.2 356.594 1460.73 359.585L1471.57 357.663ZM1457.73 337.005C1457.99 340.031 1460.66 342.268 1463.69 342.002C1466.71 341.736 1468.95 339.067 1468.68 336.042L1457.73 337.005ZM1467.83 314.058C1467.86 311.021 1465.43 308.53 1462.39 308.495C1459.35 308.46 1456.86 310.894 1456.83 313.931L1467.83 314.058ZM1458.34 290.807C1457.97 293.823 1460.12 296.562 1463.14 296.927C1466.15 297.291 1468.89 295.141 1469.26 292.126L1458.34 290.807ZM1473.1 270.653C1473.81 267.698 1471.98 264.731 1469.03 264.025C1466.07 263.319 1463.11 265.142 1462.4 268.096L1473.1 270.653ZM1469.07 245.99C1468.02 248.842 1469.49 252.002 1472.34 253.047C1475.19 254.093 1478.35 252.629 1479.4 249.777L1469.07 245.99ZM1488.12 229.689C1489.48 226.976 1488.39 223.669 1485.68 222.302C1482.97 220.936 1479.66 222.027 1478.29 224.739L1488.12 229.689ZM1489.81 204.716C1488.15 207.264 1488.88 210.67 1491.43 212.323C1493.97 213.977 1497.38 213.252 1499.03 210.704L1489.81 204.716ZM1511.9 192.93C1513.8 190.56 1513.42 187.099 1511.05 185.199C1508.68 183.299 1505.22 183.68 1503.32 186.05L1511.9 192.93ZM1518.53 168.761C1516.42 170.951 1516.49 174.433 1518.68 176.538C1520.87 178.643 1524.35 178.575 1526.46 176.385L1518.53 168.761ZM1542.45 161.059C1544.72 159.044 1544.93 155.568 1542.91 153.295C1540.9 151.022 1537.42 150.813 1535.15 152.827L1542.45 161.059ZM1552.77 138.295C1550.36 140.147 1549.91 143.6 1551.76 146.008C1553.62 148.416 1557.07 148.868 1559.48 147.016L1552.77 138.295ZM1577.47 134.061C1579.99 132.362 1580.65 128.943 1578.95 126.425C1577.25 123.908 1573.83 123.245 1571.32 124.945L1577.47 134.061ZM1590.62 112.676C1588.01 114.237 1587.16 117.614 1588.72 120.22C1590.29 122.826 1593.66 123.673 1596.27 122.112L1590.62 112.676ZM1615.66 111.127C1618.34 109.692 1619.35 106.359 1617.91 103.681C1616.48 101.004 1613.14 99.997 1610.47 101.432L1615.66 111.127ZM1630.72 91.13C1627.99 92.4505 1626.84 95.7386 1628.16 98.4741C1629.48 101.21 1632.77 102.357 1635.51 101.036L1630.72 91.13ZM1655.81 91.7106C1658.6 90.4944 1659.87 87.2521 1658.65 84.4686C1657.44 81.6851 1654.19 80.4146 1651.41 81.6307L1655.81 91.7106ZM1672.41 72.8842C1669.59 74.0052 1668.21 77.2025 1669.33 80.0257C1670.45 82.8488 1673.65 84.2287 1676.47 83.1077L1672.41 72.8842ZM1697.37 75.1838C1700.22 74.1497 1701.7 70.996 1700.66 68.1399C1699.63 65.2838 1696.48 63.8068 1693.62 64.8409L1697.37 75.1838ZM1715.08 57.4136C1712.19 58.3678 1710.63 61.4791 1711.58 64.3629C1712.54 67.2467 1715.65 68.8109 1718.53 67.8567L1715.08 57.4136ZM1739.87 61.1009C1742.78 60.2203 1744.42 57.1498 1743.54 54.2427C1742.66 51.3355 1739.59 49.6927 1736.68 50.5733L1739.87 61.1009ZM1758.48 44.2526C1755.55 45.0648 1753.83 48.096 1754.65 51.023C1755.46 53.95 1758.49 55.6643 1761.42 54.8521L1758.48 44.2526ZM1783.11 49.0891C1786.05 48.3405 1787.83 45.3472 1787.08 42.4033C1786.33 39.4595 1783.34 37.6798 1780.4 38.4283L1783.11 49.0891ZM1802.35 33.0829C1799.39 33.772 1797.55 36.7289 1798.24 39.6873C1798.93 42.6456 1801.89 44.4852 1804.85 43.796L1802.35 33.0829ZM1826.78 38.9081C1829.75 38.2751 1831.64 35.3536 1831.01 32.3827C1830.38 29.4118 1827.46 27.5166 1824.48 28.1497L1826.78 38.9081ZM1846.73 23.6193C1843.75 24.1991 1841.8 27.0863 1842.38 30.0681C1842.96 33.0498 1845.85 34.9969 1848.83 34.4171L1846.73 23.6193ZM1870.88 30.3232C1873.87 29.7939 1875.87 26.9401 1875.34 23.949C1874.81 20.9579 1871.96 18.9622 1868.97 19.4915L1870.88 30.3232ZM1891.16 15.7496C1888.16 16.2306 1886.12 19.0519 1886.6 22.0511C1887.08 25.0504 1889.9 27.0918 1892.9 26.6108L1891.16 15.7496ZM1915.15 23.2224C1918.16 22.7886 1920.24 19.9997 1919.81 16.9933C1919.38 13.9869 1916.59 11.9014 1913.58 12.3352L1915.15 23.2224ZM1936.09 9.26497C1933.07 9.65243 1930.94 12.4088 1931.33 15.4216C1931.72 18.4344 1934.48 20.5626 1937.49 20.1751L1936.09 9.26497ZM1959.83 17.4756C1962.85 17.1343 1965.02 14.4107 1964.67 11.3924C1964.33 8.37409 1961.61 6.20394 1958.59 6.54525L1959.83 17.4756ZM1981.08 4.17869C1978.06 4.47288 1975.84 7.16222 1976.14 10.1855C1976.43 13.2088 1979.12 15.4212 1982.14 15.127L1981.08 4.17869ZM2004.24 13.1582C2007.27 12.9141 2009.52 10.2617 2009.28 7.23398C2009.04 4.20624 2006.38 1.94965 2003.35 2.19375L2004.24 13.1582ZM2026.26 0.573685C2023.23 0.754403 2020.92 3.35898 2021.1 6.39116C2021.28 9.42335 2023.88 11.7349 2026.92 11.5542L2026.26 0.573685ZM29.5696 1245.69C28.9458 1251.16 28.9459 1251.16 28.946 1251.16C28.9461 1251.16 28.9462 1251.16 28.9464 1251.16C28.9466 1251.16 28.9469 1251.16 28.9473 1251.16C28.948 1251.16 28.949 1251.16 28.9502 1251.16C28.9526 1251.16 28.956 1251.16 28.9603 1251.16C28.9688 1251.16 28.9811 1251.16 28.9971 1251.16C29.0291 1251.17 29.076 1251.17 29.1375 1251.18C29.2605 1251.19 29.4423 1251.21 29.6814 1251.24C30.1598 1251.29 30.8679 1251.37 31.7957 1251.46C33.6513 1251.66 36.3858 1251.93 39.9183 1252.26L40.9364 1241.31C37.4457 1240.98 34.7513 1240.71 32.9339 1240.52C32.0251 1240.43 31.3357 1240.35 30.8756 1240.3C30.6455 1240.28 30.4728 1240.26 30.3587 1240.25C30.3017 1240.24 30.2593 1240.24 30.2317 1240.23C30.2179 1240.23 30.2078 1240.23 30.2014 1240.23C30.1982 1240.23 30.196 1240.23 30.1947 1240.23C30.194 1240.23 30.1936 1240.23 30.1934 1240.23C30.1933 1240.23 30.1932 1240.23 30.1933 1240.23C30.1933 1240.23 30.1933 1240.23 30.1933 1240.23C30.1934 1240.23 30.1935 1240.23 29.5696 1245.69ZM62.6949 1254.14C69.3988 1254.62 76.9723 1255.13 85.2957 1255.6L85.9177 1244.61C77.6572 1244.15 70.1433 1243.65 63.4951 1243.17L62.6949 1254.14ZM108.044 1256.71C115.26 1257.01 122.85 1257.27 130.762 1257.47L131.046 1246.47C123.194 1246.27 115.66 1246.01 108.497 1245.72L108.044 1256.71ZM153.46 1257.88C160.834 1257.96 168.416 1257.98 176.171 1257.94L176.108 1246.94C168.414 1246.98 160.892 1246.96 153.574 1246.88L153.46 1257.88ZM198.907 1257.61C206.38 1257.44 213.974 1257.21 221.662 1256.89L221.212 1245.9C213.594 1246.21 206.067 1246.45 198.657 1246.62L198.907 1257.61ZM244.41 1255.74C251.904 1255.29 259.459 1254.76 267.051 1254.14L266.158 1243.18C258.647 1243.79 251.168 1244.31 243.747 1244.76L244.41 1255.74ZM289.697 1252.04C297.231 1251.25 304.78 1250.37 312.318 1249.39L310.898 1238.48C303.456 1239.45 296 1240.32 288.553 1241.1L289.697 1252.04ZM334.862 1246.14C342.381 1244.94 349.869 1243.64 357.301 1242.22L355.232 1231.41C347.92 1232.81 340.547 1234.1 333.135 1235.28L334.862 1246.14ZM379.661 1237.52C387.146 1235.81 394.55 1233.96 401.845 1231.97L398.949 1221.36C391.809 1223.31 384.552 1225.12 377.205 1226.8L379.661 1237.52ZM423.769 1225.43C431.11 1223.05 438.308 1220.5 445.335 1217.77L441.354 1207.52C434.532 1210.16 427.528 1212.65 420.369 1214.97L423.769 1225.43ZM466.423 1208.79C473.505 1205.48 480.363 1201.96 486.959 1198.21L481.521 1188.65C475.201 1192.24 468.606 1195.63 461.769 1198.82L466.423 1208.79ZM506.538 1185.83C512.965 1181.3 519.053 1176.49 524.756 1171.39L517.419 1163.19C512.058 1167.99 506.307 1172.53 500.202 1176.84L506.538 1185.83ZM541.063 1154.69C546.132 1148.71 550.726 1142.39 554.791 1135.72L545.395 1130C541.642 1136.16 537.388 1142.02 532.672 1147.58L541.063 1154.69ZM565.287 1114.74C568.137 1107.61 570.439 1100.14 572.151 1092.34L561.407 1089.98C559.823 1097.2 557.698 1104.09 555.073 1110.66L565.287 1114.74ZM575.39 1069.23C575.881 1061.74 575.878 1053.99 575.357 1045.96L564.38 1046.67C564.872 1054.24 564.872 1061.52 564.413 1068.51L575.39 1069.23ZM572.529 1022.8C571.239 1015.49 569.551 1007.98 567.452 1000.25L556.837 1003.13C558.854 1010.56 560.467 1017.75 561.697 1024.71L572.529 1022.8ZM560.669 978.571C558.187 971.535 555.385 964.333 552.251 956.963L542.128 961.267C545.176 968.437 547.894 975.423 550.295 982.23L560.669 978.571ZM542.813 936.314C541.098 932.8 539.312 929.25 537.453 925.663L527.686 930.724C529.505 934.234 531.252 937.705 532.927 941.138L542.813 936.314ZM537.453 925.663C535.601 922.089 533.89 918.589 532.317 915.162L522.32 919.75C523.97 923.345 525.758 927.003 527.686 930.724L537.453 925.663ZM524.508 895.468C522.071 888.074 520.363 881.082 519.332 874.468L508.464 876.162C509.597 883.434 511.457 891.014 514.061 898.912L524.508 895.468ZM518.328 853.842C518.825 846.724 520.254 840.11 522.537 833.947L512.222 830.126C509.561 837.308 507.922 844.954 507.355 853.076L518.328 853.842ZM532.465 815.968C536.494 810.647 541.358 805.668 547.034 801.009L540.055 792.506C533.791 797.648 528.304 803.241 523.695 809.328L532.465 815.968ZM564.375 789.164C570.285 785.769 576.72 782.595 583.654 779.631L579.331 769.516C572.052 772.628 565.225 775.99 558.895 779.627L564.375 789.164ZM604.441 771.842C610.973 769.693 617.822 767.685 624.97 765.811L622.179 755.171C614.837 757.096 607.771 759.166 601.004 761.392L604.441 771.842ZM646.555 760.731C653.494 759.267 660.655 757.905 668.024 756.638L666.16 745.797C658.667 747.086 651.37 748.473 644.285 749.968L646.555 760.731ZM689.935 753.227C697.043 752.227 704.312 751.301 711.731 750.444L710.468 739.517C702.967 740.384 695.608 741.321 688.403 742.334L689.935 753.227ZM733.887 748.124C741.06 747.445 748.352 746.821 755.752 746.248L754.902 735.281C747.444 735.859 740.091 736.488 732.851 737.173L733.887 748.124ZM778.135 744.682C785.33 744.23 792.614 743.819 799.979 743.444L799.421 732.458C792.015 732.835 784.687 733.249 777.445 733.704L778.135 744.682ZM822.308 742.428C829.591 742.133 836.942 741.869 844.354 741.633L844.003 730.639C836.562 730.876 829.18 731.141 821.864 731.437L822.308 742.428ZM866.528 741.008C873.908 740.826 881.339 740.667 888.815 740.527L888.61 729.529C881.114 729.669 873.66 729.829 866.256 730.012L866.528 741.008ZM910.896 740.17C918.295 740.067 925.73 739.981 933.194 739.906L933.085 728.907C925.608 728.981 918.159 729.068 910.744 729.171L910.896 740.17ZM955.354 739.718C962.734 739.666 970.135 739.622 977.554 739.585L977.498 728.585C970.074 728.623 962.664 728.666 955.276 728.719L955.354 739.718ZM999.82 739.486C1007.21 739.457 1014.61 739.431 1022.01 739.405L1021.98 728.405C1014.57 728.431 1007.17 728.458 999.777 728.486L999.82 739.486ZM1044.23 739.323C1051.66 739.293 1059.08 739.26 1066.49 739.221L1066.43 728.221C1059.02 728.26 1051.61 728.293 1044.19 728.323L1044.23 739.323ZM1088.73 739.082C1096.13 739.027 1103.52 738.963 1110.88 738.887L1110.77 727.888C1103.42 727.964 1096.04 728.027 1088.65 728.082L1088.73 739.082ZM1133.24 738.615C1140.67 738.51 1148.07 738.388 1155.44 738.248L1155.23 727.25C1147.88 727.39 1140.5 727.511 1133.08 727.616L1133.24 738.615ZM1177.69 737.762C1185.18 737.576 1192.62 737.366 1200.02 737.13L1199.66 726.136C1192.3 726.371 1184.88 726.58 1177.42 726.765L1177.69 737.762ZM1222.05 736.339C1229.61 736.035 1237.12 735.699 1244.55 735.327L1244 724.341C1236.61 724.711 1229.14 725.045 1221.61 725.348L1222.05 736.339ZM1266.68 734.097C1274.2 733.634 1281.65 733.129 1289.01 732.578L1288.18 721.609C1280.88 722.156 1273.48 722.658 1266.01 723.117L1266.68 734.097ZM1311.26 730.737C1318.73 730.058 1326.1 729.324 1333.35 728.53L1332.15 717.595C1324.97 718.382 1317.67 719.109 1310.27 719.782L1311.26 730.737ZM1355.72 725.835C1363.15 724.854 1370.44 723.799 1377.58 722.665L1375.86 711.801C1368.82 712.919 1361.62 713.96 1354.28 714.93L1355.72 725.835ZM1399.95 718.754C1407.37 717.328 1414.6 715.799 1421.63 714.161L1419.13 703.449C1412.25 705.051 1405.16 706.55 1397.87 707.952L1399.95 718.754ZM1443.64 708.468C1451.07 706.34 1458.22 704.061 1465.07 701.617L1461.37 691.256C1454.76 693.614 1447.84 695.824 1440.61 697.893L1443.64 708.468ZM1485.96 693.223C1493.22 689.928 1500.06 686.383 1506.43 682.568L1500.77 673.133C1494.81 676.708 1488.35 680.061 1481.41 683.204L1485.96 693.223ZM1525.15 669.393C1531.25 664.313 1536.69 658.835 1541.37 652.926L1532.75 646.094C1528.58 651.351 1523.7 656.294 1518.11 660.939L1525.15 669.393ZM1553.6 632.728C1556.7 625.686 1558.9 618.202 1560.14 610.262L1549.27 608.561C1548.17 615.577 1546.24 622.143 1543.54 628.301L1553.6 632.728ZM1561.11 587.219C1560.65 579.837 1559.48 572.145 1557.59 564.131L1546.89 566.655C1548.65 574.125 1549.71 581.202 1550.13 587.908L1561.11 587.219ZM1551.03 542.512C1548.56 535.795 1545.63 528.866 1542.25 521.719L1532.31 526.432C1535.57 533.306 1538.36 539.928 1540.7 546.307L1551.03 542.512ZM1531.82 501.631C1529.88 498.188 1527.84 494.698 1525.71 491.159L1516.29 496.842C1518.37 500.289 1520.35 503.682 1522.23 507.022L1531.82 501.631ZM1525.71 491.159C1523.68 487.798 1521.71 484.461 1519.8 481.148L1510.27 486.647C1512.22 490.023 1514.23 493.421 1516.29 496.842L1525.71 491.159ZM1509.01 461.559C1505.5 454.847 1502.23 448.239 1499.19 441.732L1489.22 446.38C1492.33 453.045 1495.68 459.805 1499.27 466.662L1509.01 461.559ZM1490.29 421.27C1487.45 414.216 1484.9 407.289 1482.62 400.487L1472.19 403.979C1474.54 410.998 1477.17 418.132 1480.09 425.383L1490.29 421.27ZM1476.34 379.415C1474.41 372.008 1472.82 364.758 1471.57 357.663L1460.73 359.585C1462.05 366.976 1463.69 374.509 1465.69 382.187L1476.34 379.415ZM1468.68 336.042C1468.02 328.533 1467.74 321.206 1467.83 314.058L1456.83 313.931C1456.74 321.452 1457.03 329.142 1457.73 337.005L1468.68 336.042ZM1469.26 292.126C1470.15 284.772 1471.43 277.617 1473.1 270.653L1462.4 268.096C1460.64 275.47 1459.28 283.038 1458.34 290.807L1469.26 292.126ZM1479.4 249.777C1481.92 242.886 1484.84 236.192 1488.12 229.689L1478.29 224.739C1474.83 231.611 1471.75 238.693 1469.07 245.99L1479.4 249.777ZM1499.03 210.704C1503 204.601 1507.29 198.678 1511.9 192.93L1503.32 186.05C1498.49 192.071 1493.98 198.291 1489.81 204.716L1499.03 210.704ZM1526.46 176.385C1531.52 171.116 1536.86 166.009 1542.45 161.059L1535.15 152.827C1529.36 157.961 1523.81 163.27 1518.53 168.761L1526.46 176.385ZM1559.48 147.016C1565.28 142.558 1571.28 138.241 1577.47 134.061L1571.32 124.945C1564.95 129.244 1558.76 133.692 1552.77 138.295L1559.48 147.016ZM1596.27 122.112C1602.59 118.326 1609.06 114.666 1615.66 111.127L1610.47 101.432C1603.72 105.049 1597.09 108.795 1590.62 112.676L1596.27 122.112ZM1635.51 101.036C1642.18 97.8163 1648.95 94.7091 1655.81 91.7106L1651.41 81.6307C1644.43 84.6819 1637.52 87.8468 1630.72 91.13L1635.51 101.036ZM1676.47 83.1077C1683.38 80.3654 1690.35 77.7254 1697.37 75.1838L1693.62 64.8409C1686.5 67.4188 1679.42 70.0986 1672.41 72.8842L1676.47 83.1077ZM1718.53 67.8567C1725.62 65.5112 1732.74 63.2605 1739.87 61.1009L1736.68 50.5733C1729.47 52.7586 1722.26 55.0374 1715.08 57.4136L1718.53 67.8567ZM1761.42 54.8521C1768.66 52.8422 1775.9 50.9225 1783.11 49.0891L1780.4 38.4283C1773.11 40.2805 1765.8 42.2205 1758.48 44.2526L1761.42 54.8521ZM1804.85 43.796C1812.21 42.0805 1819.53 40.4526 1826.78 38.9081L1824.48 28.1497C1817.17 29.708 1809.79 31.3509 1802.35 33.0829L1804.85 43.796ZM1848.83 34.4171C1856.29 32.9666 1863.65 31.6037 1870.88 30.3232L1868.97 19.4915C1861.67 20.7824 1854.25 22.1566 1846.73 23.6193L1848.83 34.4171ZM1892.9 26.6108C1900.51 25.3913 1907.93 24.264 1915.15 23.2224L1913.58 12.3352C1906.31 13.3847 1898.82 14.5205 1891.16 15.7496L1892.9 26.6108ZM1937.49 20.1751C1945.27 19.1738 1952.74 18.2774 1959.83 17.4756L1958.59 6.54525C1951.45 7.35307 1943.93 8.25618 1936.09 9.26497L1937.49 20.1751ZM1982.14 15.127C1990.28 14.3354 1997.68 13.6869 2004.24 13.1582L2003.35 2.19375C1996.74 2.72708 1989.28 3.38089 1981.08 4.17869L1982.14 15.127ZM2026.92 11.5542C2030.43 11.345 2033.13 11.2052 2034.96 11.1178C2035.87 11.0741 2036.56 11.0435 2037.02 11.0239C2037.25 11.0141 2037.43 11.0071 2037.54 11.0025C2037.6 11.0003 2037.64 10.9986 2037.67 10.9976C2037.68 10.997 2037.69 10.9967 2037.7 10.9964C2037.7 10.9963 2037.7 10.9962 2037.7 10.9962C2037.7 10.9961 2037.7 10.9961 2037.7 10.9961C2037.7 10.9961 2037.7 10.9961 2037.7 10.9961C2037.7 10.9961 2037.7 10.9961 2037.7 10.9961C2037.7 10.9961 2037.7 10.9961 2037.5 5.49993C2037.3 0.00372515 2037.3 0.0037298 2037.3 0.003735C2037.3 0.00373746 2037.3 0.00374321 2037.3 0.00374814C2037.29 0.003758 2037.29 0.00377005 2037.29 0.00378432C2037.29 0.00381284 2037.29 0.00385019 2037.29 0.00389642C2037.29 0.00398889 2037.29 0.0041169 2037.28 0.00428099C2037.27 0.00460916 2037.26 0.0050816 2037.24 0.00570243C2037.21 0.0069441 2037.16 0.00877934 2037.1 0.0112412C2036.98 0.0161648 2036.8 0.0235949 2036.56 0.0337954C2036.07 0.0541963 2035.36 0.0856796 2034.43 0.130358C2032.57 0.219713 2029.82 0.361854 2026.26 0.573685L2026.92 11.5542Z" fill="black"/>
</svg>
