<svg width="494" height="552" viewBox="0 0 494 552" fill="none" xmlns="http://www.w3.org/2000/svg">
<path d="M7.49591 3.83455C7.40447 1.90372 5.76509 0.412597 3.83426 0.504039C1.90343 0.595481 0.412304 2.23486 0.503746 4.16569L7.49591 3.83455ZM456.989 518.607C449.251 525.419 448.499 537.214 455.311 544.952C462.123 552.69 473.918 553.442 481.657 546.63C489.395 539.818 490.146 528.023 483.334 520.285C476.522 512.546 464.727 511.795 456.989 518.607ZM3.99983 4.00012C0.503746 4.16569 0.50375 4.16576 0.503753 4.16584C0.503755 4.16587 0.503759 4.16596 0.503763 4.16604C0.50377 4.16619 0.503779 4.16638 0.50379 4.16661C0.503811 4.16706 0.50384 4.16766 0.503876 4.16841C0.503947 4.1699 0.504046 4.17199 0.504174 4.17466C0.50443 4.18 0.5048 4.1877 0.505286 4.19773C0.506258 4.21779 0.507694 4.2472 0.50961 4.28586C0.513442 4.36318 0.519192 4.4775 0.526988 4.62802C0.542581 4.92905 0.566355 5.37488 0.599323 5.9591C0.665257 7.12751 0.767965 8.84955 0.915533 11.0739L7.90018 10.6105C7.7542 8.41018 7.6529 6.71117 7.5882 5.56471C7.55586 4.99149 7.53266 4.55643 7.51762 4.26593C7.51009 4.12068 7.50461 4.01157 7.50103 3.93941C7.49924 3.90333 7.49793 3.87648 7.49708 3.85897C7.49666 3.85022 7.49635 3.84379 7.49616 3.83972C7.49606 3.83768 7.49599 3.83623 7.49595 3.83537C7.49593 3.83494 7.49591 3.83466 7.49591 3.83452C7.4959 3.83445 7.4959 3.83442 7.4959 3.83442C7.4959 3.83443 7.49591 3.83446 7.49591 3.83446C7.49591 3.8345 7.49591 3.83455 3.99983 4.00012ZM1.97093 25.0349C2.32309 29.234 2.75048 33.9849 3.26519 39.211L10.2315 38.5249C9.72028 33.3344 9.29594 28.6172 8.94644 24.4499L1.97093 25.0349ZM4.73467 53.1665C5.22901 57.5785 5.77668 62.2161 6.38261 67.0482L13.3282 66.1773C12.7263 61.3771 12.1822 56.77 11.6911 52.3871L4.73467 53.1665ZM8.2135 80.9036C8.83998 85.4122 9.51432 90.0473 10.2398 94.7884L17.1593 93.7295C16.4389 89.0216 15.7691 84.4183 15.1469 79.9402L8.2135 80.9036ZM12.4712 108.703C13.2383 113.274 14.0521 117.919 14.9154 122.621L21.8004 121.358C20.9438 116.691 20.1361 112.082 19.3746 107.544L12.4712 108.703ZM17.5498 136.356C18.4623 140.913 19.4217 145.508 20.4302 150.127L27.2691 148.634C26.2696 144.056 25.3184 139.501 24.4135 134.982L17.5498 136.356ZM23.5653 163.873C24.6468 168.414 25.7774 172.965 26.9591 177.513L33.7341 175.753C32.565 171.253 31.4459 166.748 30.3749 162.251L23.5653 163.873ZM30.6535 191.11C31.9375 195.631 33.2747 200.135 34.6673 204.61L41.3511 202.53C39.9767 198.114 38.6561 193.665 37.3872 189.198L30.6535 191.11ZM39.0424 218.019C40.5756 222.5 42.1687 226.938 43.8239 231.319L50.3721 228.845C48.7444 224.537 47.1762 220.169 45.6655 215.753L39.0424 218.019ZM49.0397 244.42C50.8811 248.809 52.7918 253.122 54.7743 257.345L61.1107 254.37C59.1721 250.241 57.3007 246.017 55.4945 241.712L49.0397 244.42ZM61.1205 270.066C63.3701 274.305 65.7037 278.427 68.1244 282.414L74.1078 278.781C71.7621 274.918 69.4949 270.913 67.3038 266.785L61.1205 270.066ZM75.8865 294.283C78.6825 298.243 81.5848 302.028 84.5978 305.612L89.9563 301.108C87.0797 297.686 84.2967 294.058 81.6049 290.246L75.8865 294.283ZM94.3964 316.154C97.911 319.553 101.563 322.691 105.358 325.536L109.557 319.936C106.014 317.279 102.583 314.334 99.2625 311.122L94.3964 316.154ZM117.542 333.358C121.82 335.665 126.258 337.613 130.859 339.167L133.099 332.535C128.887 331.113 124.811 329.324 120.864 327.197L117.542 333.358ZM145.011 342.588C149.722 343.292 154.573 343.6 159.568 343.487L159.409 336.489C154.808 336.593 150.356 336.309 146.046 335.664L145.011 342.588ZM174.092 342.018C178.6 341.219 183.21 340.094 187.924 338.628L185.845 331.944C181.398 333.327 177.074 334.381 172.871 335.125L174.092 342.018ZM201.295 333.664C205.58 331.822 209.946 329.709 214.394 327.316L211.078 321.151C206.798 323.454 202.616 325.476 198.53 327.233L201.295 333.664ZM226.416 320.288C230.315 317.831 234.275 315.166 238.299 312.285L234.223 306.593C230.306 309.398 226.46 311.987 222.684 314.366L226.416 320.288ZM249.488 303.844C253.106 300.978 256.774 297.943 260.492 294.735L255.919 289.435C252.271 292.583 248.679 295.555 245.142 298.357L249.488 303.844ZM270.84 285.475C274.298 282.271 277.799 278.921 281.343 275.421L276.424 270.441C272.931 273.89 269.484 277.189 266.083 280.339L270.84 285.475ZM290.893 265.732C294.111 262.382 297.364 258.911 300.652 255.317L295.486 250.592C292.236 254.146 289.022 257.575 285.845 260.883L290.893 265.732ZM305.61 249.832C307.263 247.982 308.902 246.165 310.527 244.381L305.352 239.667C303.712 241.468 302.058 243.301 300.39 245.168L305.61 249.832ZM320.109 234.07C323.246 230.763 326.328 227.585 329.355 224.534L324.385 219.604C321.32 222.694 318.202 225.909 315.031 229.252L320.109 234.07ZM339.602 214.485C342.978 211.27 346.28 208.222 349.509 205.338L344.846 200.117C341.558 203.054 338.201 206.153 334.774 209.417L339.602 214.485ZM360.17 196.188C363.782 193.218 367.295 190.468 370.71 187.931L366.536 182.312C363.022 184.922 359.419 187.743 355.724 190.78L360.17 196.188ZM382.228 179.934C386.241 177.353 390.099 175.097 393.806 173.149L390.551 166.952C386.644 169.005 382.609 171.366 378.441 174.047L382.228 179.934ZM405.873 167.675C410.437 165.957 414.721 164.773 418.741 164.071L417.538 157.176C413.035 157.961 408.327 159.272 403.406 161.124L405.873 167.675ZM431.617 163.493C436.033 163.935 440.083 165.081 443.811 166.855L446.819 160.534C442.352 158.408 437.519 157.049 432.314 156.528L431.617 163.493ZM454.226 174.139C457.2 176.981 459.951 180.361 462.485 184.249L468.349 180.426C465.566 176.156 462.481 172.344 459.063 169.078L454.226 174.139ZM468.833 196.014C470.601 199.946 472.217 204.182 473.69 208.694L480.344 206.522C478.805 201.805 477.101 197.332 475.218 193.143L468.833 196.014ZM477.414 221.91C478.459 226.219 479.4 230.704 480.244 235.345L487.131 234.094C486.266 229.333 485.297 224.714 484.217 220.261L477.414 221.91ZM482.373 248.873C482.978 253.344 483.505 257.926 483.962 262.601L490.929 261.921C490.465 257.167 489.927 252.499 489.31 247.935L482.373 248.873ZM485.094 276.468C485.395 280.99 485.638 285.58 485.827 290.223L492.822 289.937C492.63 285.238 492.384 280.589 492.078 276.003L485.094 276.468ZM486.234 304.081C486.319 308.685 486.356 313.326 486.351 317.993L493.351 318.001C493.357 313.291 493.318 308.604 493.233 303.952L486.234 304.081ZM486.215 331.833C486.13 336.455 486.008 341.089 485.851 345.725L492.847 345.961C493.005 341.291 493.128 336.62 493.214 331.961L486.215 331.833ZM485.286 359.591C485.064 364.237 484.812 368.873 484.533 373.486L491.521 373.908C491.801 369.267 492.055 364.601 492.278 359.924L485.286 359.591ZM483.614 387.342C483.278 391.997 482.918 396.616 482.539 401.187L489.515 401.767C489.896 397.172 490.258 392.527 490.596 387.845L483.614 387.342ZM481.313 415.087C480.877 419.76 480.424 424.365 479.959 428.888L486.922 429.605C487.39 425.06 487.845 420.433 488.283 415.737L481.313 415.087ZM478.477 442.675C477.944 447.433 477.402 452.075 476.857 456.582L483.807 457.422C484.354 452.896 484.898 448.234 485.434 443.454L478.477 442.675ZM475.125 470.411C474.502 475.214 473.885 479.812 473.281 484.178L480.215 485.136C480.821 480.752 481.441 476.134 482.066 471.311L475.125 470.411ZM471.319 497.941C470.569 503.05 469.862 507.682 469.223 511.769L476.139 512.851C476.781 508.744 477.491 504.09 478.245 498.959L471.319 497.941ZM467.044 525.23C466.676 527.428 466.383 529.123 466.184 530.266C466.084 530.838 466.007 531.272 465.956 531.563C465.93 531.708 465.911 531.817 465.898 531.89C465.891 531.926 465.886 531.953 465.883 531.971C465.881 531.98 465.88 531.986 465.88 531.99C465.879 531.993 465.879 531.994 465.879 531.995C465.879 531.996 465.879 531.996 465.878 531.996C465.878 531.996 465.878 531.996 465.878 531.996C465.878 531.996 465.878 531.996 465.878 531.996C465.878 531.996 465.878 531.996 469.323 532.618C472.767 533.24 472.767 533.24 472.767 533.24C472.767 533.24 472.767 533.24 472.767 533.24C472.767 533.24 472.767 533.24 472.767 533.24C472.767 533.239 472.767 533.239 472.767 533.238C472.768 533.237 472.768 533.235 472.768 533.232C472.769 533.227 472.771 533.22 472.772 533.21C472.776 533.191 472.781 533.162 472.788 533.124C472.802 533.048 472.822 532.935 472.848 532.787C472.901 532.49 472.979 532.049 473.08 531.47C473.282 530.312 473.576 528.602 473.948 526.389L467.044 525.23Z" fill="black"/>
</svg>
